<?xml version="1.0" standalone="no"?>
<!DOCTYPE svg PUBLIC "-//W3C//DTD SVG 20010904//EN"
 "http://www.w3.org/TR/2001/REC-SVG-20010904/DTD/svg10.dtd">
<svg version="1.0" xmlns="http://www.w3.org/2000/svg"
 width="2000.000000pt" height="1500.000000pt" viewBox="0 0 2000.000000 1500.000000"
 preserveAspectRatio="xMidYMid meet">

<g transform="translate(0.000000,1500.000000) scale(0.100000,-0.100000)"
fill="#000000" stroke="none">
<path d="M3212 10273 c-44 -21 -89 -74 -101 -120 -7 -22 -11 -151 -11 -310 l0
-271 -174 -4 c-190 -3 -202 -7 -249 -70 -25 -34 -25 -112 0 -146 47 -63 59
-67 249 -70 l174 -3 0 -369 0 -368 -167 -4 c-138 -3 -174 -6 -201 -21 -99 -54
-94 -198 8 -249 29 -15 63 -18 198 -18 l162 0 0 -375 0 -375 -172 0 c-189 0
-216 -7 -253 -64 -23 -35 -22 -106 1 -146 36 -61 68 -70 256 -70 l168 0 0
-375 0 -375 -170 0 c-132 0 -178 -3 -200 -15 -96 -50 -96 -199 0 -247 29 -15
63 -18 202 -18 l167 0 3 -342 c3 -385 2 -378 81 -442 l39 -31 239 -3 239 -3 0
-222 c0 -241 7 -274 61 -324 62 -56 -56 -53 1876 -53 1703 0 1780 1 1818 19
49 22 91 69 105 119 8 26 10 726 8 2347 l-3 2310 -23 37 c-13 20 -40 47 -60
60 -35 22 -49 23 -272 28 l-235 5 -5 236 c-5 235 -5 236 -32 276 -16 24 -44
49 -70 62 l-44 21 -1790 0 c-1623 0 -1792 -2 -1822 -17z m3478 -2398 l0 -2225
-1700 0 -1700 0 0 270 0 270 58 0 c55 -1 58 -2 85 -41 35 -51 105 -95 175
-110 126 -26 250 32 320 150 38 64 43 186 12 259 -31 73 -114 147 -187 168
-113 33 -237 -5 -316 -97 -40 -47 -44 -49 -94 -49 l-53 0 0 375 0 375 60 0
c33 0 60 -4 60 -9 0 -20 93 -103 137 -123 102 -44 231 -23 316 52 65 57 90
111 95 206 4 72 1 89 -21 137 -53 117 -163 183 -288 174 -86 -5 -149 -37 -209
-105 -46 -52 -49 -53 -96 -50 l-49 3 -3 373 -2 372 60 0 c33 0 60 -4 60 -9 0
-5 18 -28 41 -51 117 -121 307 -123 424 -6 62 61 85 121 85 216 0 54 -6 78
-31 128 -49 99 -128 152 -240 160 -98 7 -159 -17 -232 -90 -57 -56 -60 -58
-113 -58 l-54 0 0 370 0 370 59 0 c51 0 61 -3 75 -25 51 -78 125 -117 231
-123 75 -4 84 -2 145 30 107 55 160 143 160 263 0 120 -53 208 -160 263 -61
32 -70 34 -145 30 -98 -6 -145 -27 -208 -98 -44 -49 -46 -50 -101 -50 l-56 0
0 265 0 265 1700 0 1700 0 0 -2225z m595 -595 l0 -2225 -1697 -3 -1698 -2 0
160 0 160 1478 2 1478 3 41 27 c24 16 49 44 62 70 l21 44 0 1990 c0 1095 3
1994 7 1998 4 3 75 5 157 4 l151 -3 0 -2225z"/>
<path d="M10927 9680 c-208 -26 -320 -102 -362 -244 -35 -114 -45 -1291 -15
-1560 26 -223 146 -317 428 -334 292 -18 487 26 575 129 60 69 68 109 77 349
11 271 11 896 1 1185 -7 206 -9 224 -33 275 -63 140 -191 196 -462 204 -78 3
-172 1 -209 -4z m328 -181 c33 -6 76 -19 97 -30 65 -33 71 -55 81 -319 10
-288 2 -1250 -11 -1304 -23 -88 -96 -123 -277 -132 -132 -7 -253 8 -314 39
-78 40 -79 43 -92 447 -11 353 -6 921 10 1108 9 106 24 136 84 165 20 10 58
22 85 27 71 12 271 11 337 -1z"/>
<path d="M9220 8610 l0 -1060 101 0 100 0 -6 358 c-3 196 -13 595 -21 885 -8
291 -14 564 -14 608 l0 79 44 0 43 0 117 -587 c96 -480 202 -945 297 -1306
l10 -37 192 2 192 3 3 1058 2 1057 -102 0 -103 0 2 -282 c3 -293 28 -1282 39
-1515 l6 -133 -40 0 c-23 0 -43 3 -45 8 -3 4 -64 277 -136 607 -72 330 -170
761 -218 958 l-87 357 -188 0 -188 0 0 -1060z"/>
<path d="M11770 9575 l0 -95 205 0 205 0 0 -965 0 -965 100 0 100 0 0 965 0
965 205 0 205 0 0 95 0 95 -510 0 -510 0 0 -95z"/>
<path d="M12940 8610 l0 -1060 443 2 442 3 3 93 3 92 -346 0 -345 0 0 395 0
395 320 0 320 0 0 90 0 90 -317 2 -318 3 -3 383 -2 382 345 0 345 0 0 95 0 95
-445 0 -445 0 0 -1060z"/>
<path d="M14912 8613 l3 -1058 103 -3 102 -3 0 293 c0 239 -19 1137 -33 1546
l-3 92 33 0 c18 0 33 -4 33 -9 0 -5 33 -302 74 -661 55 -478 89 -731 127 -951
l53 -299 133 0 c129 0 133 1 138 23 2 12 27 148 54 302 38 209 68 440 121 915
39 349 73 645 76 658 3 17 11 22 34 22 l30 0 0 -77 c0 -43 -7 -301 -15 -573
-8 -272 -15 -672 -15 -887 l0 -393 100 0 100 0 0 1060 0 1060 -183 0 -182 0
-73 -437 c-70 -423 -74 -455 -112 -943 -22 -278 -40 -513 -40 -522 0 -13 -8
-18 -29 -18 -35 0 -27 -58 -81 605 -38 463 -44 513 -109 900 l-68 410 -187 3
-186 2 2 -1057z"/>
<path d="M16432 8613 l3 -1058 443 -3 442 -2 0 95 0 95 -340 0 -340 0 0 395 0
395 320 0 320 0 0 90 0 90 -320 0 -320 0 0 385 0 385 340 0 340 0 0 95 0 95
-445 0 -445 0 2 -1057z"/>
<path d="M13960 8550 l0 -100 370 0 370 0 0 100 0 100 -370 0 -370 0 0 -100z"/>
</g>
</svg>
